<mxfile host="app.diagrams.net" agent="Mozilla/5.0 (Windows NT 10.0; Win64; x64) AppleWebKit/537.36 (KHTML, like Gecko) Chrome/128.0.0.0 Safari/537.36" version="24.7.14">
  <diagram name="Halaman-1" id="-s0V4FnSo5_XF9U9b2se">
    <mxGraphModel grid="1" page="1" gridSize="10" guides="1" tooltips="1" connect="1" arrows="1" fold="1" pageScale="1" pageWidth="827" pageHeight="1169" math="0" shadow="0">
      <root>
        <mxCell id="0" />
        <mxCell id="1" parent="0" />
        <mxCell id="WiOCG9UCeqC9SkGHhBuz-3" value="" style="edgeStyle=orthogonalEdgeStyle;rounded=0;orthogonalLoop=1;jettySize=auto;html=1;" edge="1" parent="1" source="WiOCG9UCeqC9SkGHhBuz-1" target="WiOCG9UCeqC9SkGHhBuz-2">
          <mxGeometry relative="1" as="geometry" />
        </mxCell>
        <mxCell id="WiOCG9UCeqC9SkGHhBuz-1" value="&lt;b&gt;Mulai&lt;/b&gt;" style="ellipse;whiteSpace=wrap;html=1;" vertex="1" parent="1">
          <mxGeometry x="340" y="50" width="120" height="70" as="geometry" />
        </mxCell>
        <mxCell id="WiOCG9UCeqC9SkGHhBuz-5" value="" style="edgeStyle=orthogonalEdgeStyle;rounded=0;orthogonalLoop=1;jettySize=auto;html=1;" edge="1" parent="1" source="WiOCG9UCeqC9SkGHhBuz-2" target="WiOCG9UCeqC9SkGHhBuz-4">
          <mxGeometry relative="1" as="geometry" />
        </mxCell>
        <mxCell id="WiOCG9UCeqC9SkGHhBuz-2" value="input bilangan&lt;div&gt;a dan b&lt;/div&gt;" style="shape=parallelogram;perimeter=parallelogramPerimeter;whiteSpace=wrap;html=1;fixedSize=1;" vertex="1" parent="1">
          <mxGeometry x="330" y="150" width="140" height="50" as="geometry" />
        </mxCell>
        <mxCell id="WiOCG9UCeqC9SkGHhBuz-7" value="" style="edgeStyle=orthogonalEdgeStyle;rounded=0;orthogonalLoop=1;jettySize=auto;html=1;" edge="1" parent="1" source="WiOCG9UCeqC9SkGHhBuz-4" target="WiOCG9UCeqC9SkGHhBuz-6">
          <mxGeometry relative="1" as="geometry" />
        </mxCell>
        <mxCell id="WiOCG9UCeqC9SkGHhBuz-4" value="hitung hasil bilangan&lt;div&gt;a dan b&lt;/div&gt;" style="whiteSpace=wrap;html=1;" vertex="1" parent="1">
          <mxGeometry x="340" y="240" width="120" height="60" as="geometry" />
        </mxCell>
        <mxCell id="WiOCG9UCeqC9SkGHhBuz-9" value="" style="edgeStyle=orthogonalEdgeStyle;rounded=0;orthogonalLoop=1;jettySize=auto;html=1;" edge="1" parent="1" source="WiOCG9UCeqC9SkGHhBuz-6" target="WiOCG9UCeqC9SkGHhBuz-8">
          <mxGeometry relative="1" as="geometry" />
        </mxCell>
        <mxCell id="WiOCG9UCeqC9SkGHhBuz-6" value="&lt;b&gt;Cetak hasil&lt;/b&gt;" style="rounded=1;whiteSpace=wrap;html=1;" vertex="1" parent="1">
          <mxGeometry x="340" y="340" width="120" height="60" as="geometry" />
        </mxCell>
        <mxCell id="WiOCG9UCeqC9SkGHhBuz-8" value="&lt;b&gt;END&lt;/b&gt;" style="rounded=1;whiteSpace=wrap;html=1;" vertex="1" parent="1">
          <mxGeometry x="340" y="440" width="120" height="60" as="geometry" />
        </mxCell>
      </root>
    </mxGraphModel>
  </diagram>
</mxfile>
